<svg width="24" height="24" viewBox="0 0 24 24" fill="none" xmlns="http://www.w3.org/2000/svg">
<g clip-path="url(#clip0)">
<path d="M14.6 1.69999L23.3 19.7C23.6335 20.2103 23.8393 20.7934 23.9 21.4C23.9 22.1 23.2 22.8 22 23.5C21.4669 23.7646 20.8915 23.9338 20.3 24C19.9105 24.0218 19.5245 23.9165 19.2 23.7L18.7 23.1C18.4722 22.8009 18.3025 22.4617 18.2 22.1L16.5 18.6H7.50001L5.80001 22.1C5.69747 22.4617 5.52786 22.8009 5.30001 23.1L4.80001 23.7C4.47554 23.9165 4.08949 24.0218 3.70001 24C3.09342 23.9392 2.51034 23.7335 2.00001 23.4C0.800006 22.8 0.100006 22.1 0.100006 21.4C0.160747 20.7934 0.366538 20.2103 0.700006 19.7L9.40001 1.59999C9.65965 1.13999 10.04 0.759634 10.5 0.49999C10.9463 0.20219 11.4643 0.0295262 12 -9.75737e-06C12.5528 -0.0049601 13.0947 0.153835 13.5574 0.456363C14.0201 0.758891 14.3829 1.19161 14.6 1.69999ZM12 9.39999L9.90001 13.9H14.1L12 9.39999Z" fill="white"/>
</g>
<defs>
<clipPath id="clip0">
<rect width="24" height="24" fill="white"/>
</clipPath>
</defs>
</svg>
