<svg width="24" height="24" viewBox="0 0 24 24" fill="none" xmlns="http://www.w3.org/2000/svg">
<path d="M3 21.8C3.42129 20.3922 3.95639 19.021 4.6 17.7L8.3 9.7C9.7 6.7 10.6 4.5 11.1 3.2L11.7 1.6C11.4238 1.12557 11.0877 0.688652 10.7 0.3L12.4 0C13.049 0.0412525 13.6685 0.285544 14.171 0.698305C14.6735 1.11107 15.0335 1.67139 15.2 2.3C15.9311 4.42029 16.4994 6.59326 16.9 8.8C16.9 8.9 17 9 17 9.2C17.1491 10.1765 17.3493 11.1445 17.6 12.1C17.9 13.8 18.2 15 18.3 15.5C18.4 16 18.7 17 19 18.1C19.3665 19.7471 20.0455 21.3086 21 22.7C20.3058 23.1416 19.5184 23.4155 18.7 23.5C18.4745 23.5199 18.2474 23.4848 18.0384 23.3977C17.8294 23.3106 17.6447 23.1742 17.5 23C17.1708 22.514 16.9335 21.9717 16.8 21.4C16.5 20.6 16.1 18.6 15.4 15.2C15.0854 15.5715 14.6823 15.8579 14.2279 16.0326C13.7735 16.2074 13.2825 16.2649 12.8 16.2L7.7 16.4C6.7 19.4 5.9 21.9 5.4 24C3.8 23.4 3 22.6 3 21.8ZM12.7 4.1C10.5 9.3 9.1 12.7 8.5 14.3H15.2C14.555 10.8566 13.7204 7.45141 12.7 4.1Z" fill="white"/>
</svg>
