<svg width="24" height="24" viewBox="0 0 24 24" fill="none" xmlns="http://www.w3.org/2000/svg">
<g clip-path="url(#clip0)">
<path d="M15.9 18.4H7.70001L6.10001 23.8H4.00001C3.28752 23.8299 2.57562 23.7282 1.90001 23.5L1.70001 23.3L9.40001 0.2L12.2 0L14.7 0.2L22.3 23.4C21.5662 23.8063 20.7387 24.0131 19.9 24C19.1977 24.0443 18.4989 23.8696 17.9 23.5C17.4073 22.9257 17.0638 22.2388 16.9 21.5L15.9 18.4ZM8.80001 14.7H14.8L13.8 11.2C13 8.6 12.4 6.4 11.9 4.5H11.7C11.5 5.5 11 7.4 10.2 10.3L8.80001 14.7Z" fill="white"/>
</g>
<defs>
<clipPath id="clip0">
<rect width="24" height="24" fill="white"/>
</clipPath>
</defs>
</svg>
