<svg width="24" height="24" viewBox="0 0 24 24" fill="none" xmlns="http://www.w3.org/2000/svg">
<path d="M0 23.7V23C0.386762 22.9926 0.766999 22.899 1.11299 22.726C1.45899 22.553 1.76202 22.305 2 22C2.5 21.5 3.2 19.9 4.3 17.3L11.5 0.299988H12.2L20.9 20C21.2087 20.8822 21.684 21.697 22.3 22.4C22.7917 22.7695 23.3852 22.979 24 23V23.7H15.2V23C15.8459 23.0103 16.4887 22.9088 17.1 22.7C17.4 22.6 17.6 22.3 17.6 21.8C17.5606 21.4946 17.4937 21.1933 17.4 20.9C17.2783 20.4185 17.1109 19.9497 16.9 19.5L15.5 16.2H6.4C5.5 18.5 4.9 19.8 4.8 20.3C4.62955 20.679 4.52796 21.0854 4.5 21.5C4.46084 21.75 4.50908 22.0059 4.63659 22.2245C4.7641 22.4431 4.96309 22.611 5.2 22.7C5.73142 22.9446 6.31696 23.0479 6.9 23V23.7H0ZM15 14.8L11 5.19999L7 14.8H15Z" fill="white"/>
</svg>
